<?xml version="1.0" encoding="UTF-8" standalone="no"?><!DOCTYPE svg PUBLIC "-//W3C//DTD SVG 1.1//EN" "http://www.w3.org/Graphics/SVG/1.1/DTD/svg11.dtd"><svg width="100%" height="100%" viewBox="0 0 3071 414" version="1.1" xmlns="http://www.w3.org/2000/svg" xmlns:xlink="http://www.w3.org/1999/xlink" xml:space="preserve" xmlns:serif="http://www.serif.com/" style="fill-rule:evenodd;clip-rule:evenodd;stroke-linecap:round;stroke-linejoin:round;stroke-miterlimit:1.5;"><path d="M2242.33,189.598l56.25,18.75l-56.25,18.75l0,-37.5Z" style="fill:#b00000;"/><path d="M2159.25,208.348l94.336,-0" style="fill:none;stroke:#b00000;stroke-width:12.5px;stroke-linecap:square;"/><path d="M616.567,143.377l-0,130.512c-0,36.016 -29.241,65.256 -65.256,65.256l-454.84,0c-36.016,0 -65.256,-29.24 -65.256,-65.256l-0,-130.512c-0,-36.015 29.24,-65.256 65.256,-65.256l454.84,0c36.015,0 65.256,29.241 65.256,65.256Z" style="fill:#ffffa4;stroke:#d88600;stroke-width:8.33px;"/><path d="M2150.6,143.377l-0,130.512c-0,36.016 -29.24,65.256 -65.256,65.256l-533.395,0c-36.015,0 -65.255,-29.24 -65.255,-65.256l-0,-130.512c-0,-36.015 29.24,-65.256 65.255,-65.256l533.395,0c36.016,0 65.256,29.241 65.256,65.256Z" style="fill:#ffcc9f;stroke:#ff8e29;stroke-width:8.33px;"/><path d="M3041.89,143.135l-0,130.673c-0,36.061 -29.277,65.337 -65.337,65.337l-614.661,0c-36.06,0 -65.337,-29.276 -65.337,-65.337l0,-130.673c0,-36.061 29.277,-65.337 65.337,-65.337l614.661,0c36.06,0 65.337,29.276 65.337,65.337Z" style="fill:#f9c9ca;stroke:#b00000;stroke-width:8.33px;"/><g transform="matrix(1,0,0,1,2171.11,-494)"><text x="318.057px" y="650.86px" style="font-family:'ArialMT', 'Arial', sans-serif;font-size:66.667px;">Future work:</text><text x="149.42px" y="719.708px" style="font-family:'ArialMT', 'Arial', sans-serif;font-size:66.667px;">Mutagenesis for optimal</text><g transform="matrix(66.6667,0,0,66.6667,759.04,788.556)"></g><text x="247.549px" y="788.556px" style="font-family:'ArialMT', 'Arial', sans-serif;font-size:66.667px;">Levan production</text></g><g transform="matrix(66.6667,0,0,66.6667,575.301,232.103)"></g><text x="56.551px" y="232.103px" style="font-family:'ArialMT', 'Arial', sans-serif;font-size:66.667px;">Literature Review</text><g transform="matrix(1,0,0,1,1230.25,-453.181)"><text x="277.187px" y="650.86px" style="font-family:'ArialMT', 'Arial', sans-serif;font-size:66.667px;">V<tspan x="316.706px 353.782px " y="650.86px 650.86px ">ar</tspan>ying experimental</text><g transform="matrix(66.6667,0,0,66.6667,737.93,719.708)"></g><text x="437.734px" y="719.708px" style="font-family:'ArialMT', 'Arial', sans-serif;font-size:66.667px;">conditions</text></g><path d="M1344.67,143.377l0,130.512c0,36.016 -29.24,65.256 -65.256,65.256l-454.84,0c-36.016,0 -65.256,-29.24 -65.256,-65.256l0,-130.512c0,-36.015 29.24,-65.256 65.256,-65.256l454.84,0c36.016,0 65.256,29.241 65.256,65.256Z" style="fill:#ffde9c;stroke:#ff8e29;stroke-width:8.33px;"/><g transform="matrix(1,0,0,1,436.617,-487.605)"><text x="403.164px" y="650.86px" style="font-family:'ArialMT', 'Arial', sans-serif;font-size:66.667px;">Levansucrase</text><text x="493.984px" y="719.708px" style="font-family:'ArialMT', 'Arial', sans-serif;font-size:66.667px;">enzyme</text><g transform="matrix(66.6667,0,0,66.6667,847.825,788.556)"></g><text x="392.096px" y="788.556px" style="font-family:'ArialMT', 'Arial', sans-serif;font-size:66.667px;">kinetics models</text></g><path d="M702.333,189.598l56.25,18.75l-56.25,18.75l0,-37.5Z" style="fill:#d88600;"/><path d="M619.247,208.348l94.336,-0" style="fill:none;stroke:#d88600;stroke-width:12.5px;stroke-linecap:square;"/><path d="M1433.33,189.598l56.25,18.75l-56.25,18.75l0,-37.5Z" style="fill:#ff8e29;"/><path d="M1350.25,208.348l94.336,-0" style="fill:none;stroke:#ff8e29;stroke-width:12.5px;stroke-linecap:square;"/></svg>